<svg width="60" height="60" viewBox="0 0 60 60" fill="none" xmlns="http://www.w3.org/2000/svg">
<path d="M29.9998 6.25061C43.1094 6.25061 53.7498 16.891 53.7498 30.0006C53.7498 43.1103 43.1094 53.7506 29.9998 53.7506C16.8901 53.7506 6.24976 43.1103 6.24976 30.0006C6.24976 16.891 16.8901 6.25061 29.9998 6.25061ZM29.9998 8.75061C18.2844 8.75061 8.74976 18.2853 8.74976 30.0006C8.74976 35.6142 10.9393 40.7267 14.5085 44.5299L13.6746 46.3258L15.4695 45.4908C19.2727 49.0607 24.3857 51.2506 29.9998 51.2506C41.7151 51.2506 51.2498 41.716 51.2498 30.0006C51.2498 24.3865 49.0598 19.2736 45.49 15.4703L46.325 13.6754L44.5291 14.5094C40.7259 10.9401 35.6134 8.75061 29.9998 8.75061ZM34.0837 34.0846L18.824 41.1754L25.9148 25.9156L41.1746 18.8248L34.0837 34.0846ZM29.9998 26.0006C27.7844 26.0006 25.9998 27.7853 25.9998 30.0006C25.9998 32.216 27.7844 34.0006 29.9998 34.0006C32.2151 34.0006 33.9998 32.216 33.9998 30.0006C33.9998 27.7853 32.2151 26.0006 29.9998 26.0006Z" fill="white" stroke="white" stroke-width="2.5"/>
</svg>
