<svg width="120" height="16" viewBox="0 0 120 16" fill="none" xmlns="http://www.w3.org/2000/svg">
<path d="M54.385 9.85999C54.385 10.3133 54.3516 10.6867 54.285 10.98H47.465C47.5716 11.6067 47.7983 12.0667 48.145 12.36C48.505 12.6533 48.9783 12.8 49.565 12.8C50.0583 12.8 50.4583 12.7067 50.765 12.52C51.085 12.3333 51.2983 12.06 51.405 11.7L54.165 12.58C53.885 13.4333 53.3383 14.0867 52.525 14.54C51.725 14.98 50.7383 15.2 49.565 15.2C47.8183 15.2 46.4783 14.7467 45.545 13.84C44.625 12.9333 44.165 11.6533 44.165 9.99999C44.165 8.34666 44.6183 7.06666 45.525 6.15999C46.4316 5.25332 47.7183 4.79999 49.385 4.79999C50.9983 4.79999 52.2316 5.24665 53.085 6.13999C53.9516 7.01999 54.385 8.25999 54.385 9.85999ZM49.365 7.17999C48.285 7.17999 47.645 7.83332 47.445 9.13999H51.205C51.045 7.83332 50.4316 7.17999 49.365 7.17999Z" fill="#0C5CD3"/>
<path d="M39.2369 4.79999C40.2502 4.79999 41.0702 5.10665 41.6969 5.71999C42.3369 6.33332 42.6569 7.20666 42.6569 8.33999V15H39.2569V9.11999C39.2569 7.97332 38.8035 7.39999 37.8969 7.39999C37.3635 7.39999 36.9369 7.59332 36.6169 7.97999C36.2969 8.36665 36.1369 8.92665 36.1369 9.65999V15H32.7369V9.11999C32.7369 7.97332 32.2835 7.39999 31.3769 7.39999C30.8702 7.39999 30.4502 7.59332 30.1169 7.97999C29.7835 8.36665 29.6169 8.94666 29.6169 9.71999V15H26.2169V4.99999H29.2569L29.3569 6.91999C29.6769 6.22666 30.1235 5.69999 30.6969 5.33999C31.2702 4.97999 31.9435 4.79999 32.7169 4.79999C33.4769 4.79999 34.1302 4.97332 34.6769 5.31999C35.2369 5.66665 35.6369 6.16665 35.8769 6.81999C36.1969 6.16665 36.6502 5.66665 37.2369 5.31999C37.8369 4.97332 38.5035 4.79999 39.2369 4.79999Z" fill="#0C5CD3"/>
<path d="M19.3857 4.79999C21.0523 4.79999 22.3457 5.25999 23.2657 6.17999C24.199 7.08665 24.6657 8.35999 24.6657 9.99999C24.6657 11.64 24.199 12.92 23.2657 13.84C22.3457 14.7467 21.0523 15.2 19.3857 15.2C17.719 15.2 16.419 14.7467 15.4857 13.84C14.5657 12.92 14.1057 11.64 14.1057 9.99999C14.1057 8.35999 14.5657 7.08665 15.4857 6.17999C16.419 5.25999 17.719 4.79999 19.3857 4.79999ZM19.3857 7.21999C18.7457 7.21999 18.2723 7.43999 17.9657 7.87999C17.659 8.31999 17.5057 9.02666 17.5057 9.99999C17.5057 10.9733 17.659 11.68 17.9657 12.12C18.2723 12.56 18.7457 12.78 19.3857 12.78C20.0257 12.78 20.499 12.56 20.8057 12.12C21.1123 11.68 21.2657 10.9733 21.2657 9.99999C21.2657 9.02666 21.1123 8.31999 20.8057 7.87999C20.499 7.43999 20.0257 7.21999 19.3857 7.21999Z" fill="#0C5CD3"/>
<path d="M12.38 1.79999V15H8.94002V9.67999H3.90002V15H0.460022V1.79999H3.90002V7.01999H8.94002V1.79999H12.38Z" fill="#0C5CD3"/>
<path d="M99.5558 14.44C99.2224 14.6667 98.7958 14.8533 98.2758 15C97.7691 15.1333 97.2558 15.2 96.7358 15.2C95.5491 15.2 94.6424 14.9467 94.0158 14.44C93.3891 13.9333 93.0691 13.12 93.0558 12V7.42001H91.3358V5.00001H93.0558V2.76001L96.4558 1.82001V5.00001H99.4558V7.42001H96.4558V11.44C96.4558 12.3333 96.8958 12.78 97.7758 12.78C98.3224 12.78 98.8024 12.6333 99.2158 12.34L99.5558 14.44Z" fill="#001E46"/>
<path d="M85.5426 4.79999C87.2093 4.79999 88.5026 5.25999 89.4226 6.17999C90.356 7.08665 90.8226 8.35999 90.8226 9.99999C90.8226 11.64 90.356 12.92 89.4226 13.84C88.5026 14.7467 87.2093 15.2 85.5426 15.2C83.876 15.2 82.576 14.7467 81.6426 13.84C80.7226 12.92 80.2626 11.64 80.2626 9.99999C80.2626 8.35999 80.7226 7.08665 81.6426 6.17999C82.576 5.25999 83.876 4.79999 85.5426 4.79999ZM85.5426 7.21999C84.9026 7.21999 84.4293 7.43999 84.1226 7.87999C83.816 8.31999 83.6626 9.02666 83.6626 9.99999C83.6626 10.9733 83.816 11.68 84.1226 12.12C84.4293 12.56 84.9026 12.78 85.5426 12.78C86.1826 12.78 86.656 12.56 86.9626 12.12C87.2693 11.68 87.4226 10.9733 87.4226 9.99999C87.4226 9.02666 87.2693 8.31999 86.9626 7.87999C86.656 7.43999 86.1826 7.21999 85.5426 7.21999Z" fill="#001E46"/>
<path d="M77.9597 11.54C77.9597 11.9933 78.0264 12.3133 78.1597 12.5C78.293 12.6867 78.533 12.78 78.8797 12.78C79.1997 12.78 79.5397 12.72 79.8997 12.6L79.6797 14.7C79.4397 14.8467 79.1264 14.9667 78.7397 15.06C78.353 15.1533 77.973 15.2 77.5997 15.2C76.533 15.2 75.7597 14.9533 75.2797 14.46C74.7997 13.9533 74.5597 13.1467 74.5597 12.04V0.76001H77.9597V11.54Z" fill="#001E46"/>
<path d="M70.8794 3.83999C70.186 3.83999 69.6794 3.71332 69.3594 3.45999C69.0527 3.19332 68.8994 2.77999 68.8994 2.21999C68.8994 1.64665 69.0527 1.23332 69.3594 0.979986C69.6794 0.71332 70.186 0.579987 70.8794 0.579987C71.5727 0.579987 72.0727 0.71332 72.3794 0.979986C72.6994 1.23332 72.8594 1.64665 72.8594 2.21999C72.8594 2.77999 72.6994 3.19332 72.3794 3.45999C72.0727 3.71332 71.5727 3.83999 70.8794 3.83999ZM72.5794 15H69.1794V4.99999H72.5794V15Z" fill="#001E46"/>
<path d="M62.52 1.79999C64.16 1.79999 65.42 2.17999 66.3 2.93999C67.18 3.68665 67.62 4.76665 67.62 6.17999C67.62 7.52665 67.18 8.57332 66.3 9.31999C65.42 10.0533 64.16 10.42 62.52 10.42H59.9V15H56.46V1.79999H62.52ZM61.98 7.89999C62.7267 7.89999 63.2734 7.75999 63.62 7.47999C63.98 7.18665 64.16 6.73999 64.16 6.13999C64.16 5.55332 63.98 5.11999 63.62 4.83999C63.2734 4.54665 62.7267 4.39999 61.98 4.39999H59.9V7.89999H61.98Z" fill="#001E46"/>
<path d="M118.25 6.24999C116.2 7.49999 113.667 9.72499 113.25 13.1667H114.917V14.8333H109.917V13.1667H111.583C111.167 9.41666 107.942 6.49999 104.083 6.49999V4.83332C107.742 4.83332 110.933 6.95832 112.417 10.0833C113.567 7.60832 115.633 5.89166 117.383 4.82499L114.083 4.83332V3.16666H119.917V8.99999H118.25V6.24999Z" fill="#001E46"/>
</svg>
