<svg width="109" height="16" viewBox="0 0 109 16" fill="none" xmlns="http://www.w3.org/2000/svg">
<path d="M108.897 13.86C108.564 14.0867 108.137 14.2733 107.617 14.42C107.111 14.5533 106.597 14.62 106.077 14.62C104.891 14.62 103.984 14.3667 103.357 13.86C102.731 13.3533 102.411 12.54 102.397 11.42V6.83999H100.677V4.41999H102.397V2.17999L105.797 1.23999V4.41999H108.797V6.83999H105.797V10.86C105.797 11.7533 106.237 12.2 107.117 12.2C107.664 12.2 108.144 12.0533 108.557 11.76L108.897 13.86Z" fill="white"/>
<path d="M94.8842 4.22009C96.5509 4.22009 97.8442 4.68009 98.7642 5.60009C99.6975 6.50676 100.164 7.78009 100.164 9.42009C100.164 11.0601 99.6975 12.3401 98.7642 13.2601C97.8442 14.1668 96.5509 14.6201 94.8842 14.6201C93.2175 14.6201 91.9175 14.1668 90.9842 13.2601C90.0642 12.3401 89.6042 11.0601 89.6042 9.42009C89.6042 7.78009 90.0642 6.50676 90.9842 5.60009C91.9175 4.68009 93.2175 4.22009 94.8842 4.22009ZM94.8842 6.64009C94.2442 6.64009 93.7709 6.86009 93.4642 7.30009C93.1575 7.74009 93.0042 8.44676 93.0042 9.42009C93.0042 10.3934 93.1575 11.1001 93.4642 11.5401C93.7709 11.9801 94.2442 12.2001 94.8842 12.2001C95.5242 12.2001 95.9975 11.9801 96.3042 11.5401C96.6109 11.1001 96.7642 10.3934 96.7642 9.42009C96.7642 8.44676 96.6109 7.74009 96.3042 7.30009C95.9975 6.86009 95.5242 6.64009 94.8842 6.64009Z" fill="white"/>
<path d="M87.3012 10.9601C87.3012 11.4134 87.3679 11.7334 87.5012 11.9201C87.6346 12.1067 87.8746 12.2001 88.2212 12.2001C88.5412 12.2001 88.8812 12.1401 89.2412 12.0201L89.0212 14.1201C88.7812 14.2667 88.4679 14.3867 88.0812 14.4801C87.6946 14.5734 87.3146 14.6201 86.9412 14.6201C85.8746 14.6201 85.1012 14.3734 84.6212 13.8801C84.1412 13.3734 83.9012 12.5667 83.9012 11.4601V0.180054H87.3012V10.9601Z" fill="white"/>
<path d="M80.2209 3.26C79.5276 3.26 79.0209 3.13333 78.7009 2.88C78.3942 2.61333 78.2409 2.2 78.2409 1.64C78.2409 1.06667 78.3942 0.653333 78.7009 0.4C79.0209 0.133333 79.5276 0 80.2209 0C80.9142 0 81.4142 0.133333 81.7209 0.4C82.0409 0.653333 82.2009 1.06667 82.2009 1.64C82.2009 2.2 82.0409 2.61333 81.7209 2.88C81.4142 3.13333 80.9142 3.26 80.2209 3.26ZM81.9209 14.42H78.5209V4.42H81.9209V14.42Z" fill="white"/>
<path d="M71.8615 1.22009C73.5015 1.22009 74.7615 1.60009 75.6415 2.36009C76.5215 3.10676 76.9615 4.18676 76.9615 5.60009C76.9615 6.94676 76.5215 7.99343 75.6415 8.74009C74.7615 9.47343 73.5015 9.84009 71.8615 9.84009H69.2415V14.4201H65.8015V1.22009H71.8615ZM71.3215 7.32009C72.0682 7.32009 72.6149 7.18009 72.9615 6.90009C73.3215 6.60676 73.5015 6.16009 73.5015 5.56009C73.5015 4.97343 73.3215 4.54009 72.9615 4.26009C72.6149 3.96676 72.0682 3.82009 71.3215 3.82009H69.2415V7.32009H71.3215Z" fill="white"/>
<path d="M63.1151 10.4601H55.7951V7.68005H63.1151V10.4601Z" fill="white"/>
<path d="M53.8945 9.28009C53.8945 9.73343 53.8612 10.1068 53.7945 10.4001H46.9745C47.0812 11.0268 47.3078 11.4868 47.6545 11.7801C48.0145 12.0734 48.4878 12.2201 49.0745 12.2201C49.5678 12.2201 49.9678 12.1268 50.2745 11.9401C50.5945 11.7534 50.8078 11.4801 50.9145 11.1201L53.6745 12.0001C53.3945 12.8534 52.8478 13.5068 52.0345 13.9601C51.2345 14.4001 50.2478 14.6201 49.0745 14.6201C47.3278 14.6201 45.9878 14.1668 45.0545 13.2601C44.1345 12.3534 43.6745 11.0734 43.6745 9.42009C43.6745 7.76676 44.1278 6.48676 45.0345 5.58009C45.9412 4.67343 47.2278 4.22009 48.8945 4.22009C50.5078 4.22009 51.7412 4.66676 52.5945 5.56009C53.4612 6.44009 53.8945 7.68009 53.8945 9.28009ZM48.8745 6.60009C47.7945 6.60009 47.1545 7.25343 46.9545 8.56009H50.7145C50.5545 7.25343 49.9412 6.60009 48.8745 6.60009Z" fill="white"/>
<path d="M38.7464 4.22009C39.7597 4.22009 40.5797 4.52676 41.2064 5.14009C41.8464 5.75343 42.1664 6.62676 42.1664 7.76009V14.4201H38.7664V8.54009C38.7664 7.39343 38.313 6.82009 37.4064 6.82009C36.873 6.82009 36.4464 7.01343 36.1264 7.40009C35.8064 7.78676 35.6464 8.34676 35.6464 9.08009V14.4201H32.2464V8.54009C32.2464 7.39343 31.793 6.82009 30.8864 6.82009C30.3797 6.82009 29.9597 7.01343 29.6264 7.40009C29.293 7.78676 29.1264 8.36676 29.1264 9.14009V14.4201H25.7264V4.42009H28.7664L28.8664 6.34009C29.1864 5.64676 29.633 5.12009 30.2064 4.76009C30.7797 4.40009 31.453 4.22009 32.2264 4.22009C32.9864 4.22009 33.6397 4.39343 34.1864 4.74009C34.7464 5.08676 35.1464 5.58676 35.3864 6.24009C35.7064 5.58676 36.1597 5.08676 36.7464 4.74009C37.3464 4.39343 38.013 4.22009 38.7464 4.22009Z" fill="white"/>
<path d="M18.79 3.58667C15.57 3.58667 12.9567 6.2 12.9567 9.42C12.9567 12.64 15.57 15.2533 18.79 15.2533C22.01 15.2533 24.6233 12.64 24.6233 9.42C24.6233 6.2 22.01 3.58667 18.79 3.58667ZM18.79 14.0867C16.2175 14.0867 14.1233 11.9925 14.1233 9.42C14.1233 6.8475 16.2175 4.75334 18.79 4.75334C21.3625 4.75334 23.4567 6.8475 23.4567 9.42C23.4567 11.9925 21.3625 14.0867 18.79 14.0867ZM15.5817 12.6283L19.9625 10.5925L21.9983 6.21167L17.6175 8.2475L15.5817 12.6283ZM18.79 8.77834C19.1458 8.77834 19.4317 9.06417 19.4317 9.42C19.4317 9.77584 19.1458 10.0617 18.79 10.0617C18.4342 10.0617 18.1483 9.77584 18.1483 9.42C18.1483 9.06417 18.4342 8.77834 18.79 8.77834Z" fill="white"/>
<path d="M23.4567 9.41968C23.4565 6.92778 21.4913 4.88488 19.0299 4.75952L18.7897 4.75366C16.2174 4.75384 14.1238 6.84744 14.1237 9.41968L14.1295 9.65991C14.2549 12.1213 16.2978 14.0865 18.7897 14.0867C21.3622 14.0867 23.4567 11.9922 23.4567 9.41968ZM24.0133 9.95581C23.762 12.4236 21.7936 14.392 19.3258 14.6433C21.7961 14.3925 23.7625 12.4262 24.0133 9.95581ZM15.3463 13.3796C16.0786 14.0171 16.9881 14.4558 17.9918 14.6091C16.9893 14.4555 16.0805 14.0161 15.3483 13.3787L15.3463 13.3796ZM13.567 9.95581C13.6794 11.0623 14.1369 12.0667 14.8287 12.8621L14.8297 12.8601C14.1379 12.0647 13.6796 11.061 13.567 9.95581ZM19.9625 10.5925L15.5817 12.6287L17.6178 8.2478L21.9987 6.21167L19.9625 10.5925ZM16.7828 11.4255L18.527 10.615C18.0606 10.5133 17.6936 10.1489 17.5924 9.68237L16.7828 11.4255ZM18.7897 8.77808C18.4341 8.77825 18.1482 9.0641 18.1481 9.41968C18.1481 9.7754 18.434 10.0611 18.7897 10.0613C19.1455 10.0613 19.4313 9.77551 19.4313 9.41968C19.4311 9.064 19.1454 8.77808 18.7897 8.77808ZM19.0524 8.22241C19.5189 8.32364 19.8833 8.69058 19.985 9.15698L20.7955 7.41284L19.0524 8.22241ZM17.9908 4.23022C15.732 4.5757 13.9453 6.36289 13.6002 8.62183C13.9459 6.36513 15.7343 4.57634 17.9908 4.23022ZM22.7487 5.97827C23.3859 6.71029 23.8254 7.61875 23.9791 8.62085C23.8257 7.61753 23.3869 6.70836 22.7496 5.97632L22.7487 5.97827ZM19.3258 4.19702C20.431 4.30958 21.4347 4.76788 22.2301 5.45972L22.2321 5.45874C21.4367 4.76695 20.4323 4.30937 19.3258 4.19702ZM24.6158 9.72046C24.4593 12.801 21.9089 15.2537 18.7897 15.2537L18.4899 15.2458C15.4092 15.0895 12.9567 12.539 12.9567 9.41968C12.9568 6.19994 15.5699 3.58685 18.7897 3.58667C22.0096 3.58667 24.6235 6.19983 24.6237 9.41968L24.6158 9.72046Z" fill="white"/>
<path d="M11.92 1.22009V14.4201H8.48V9.10009H3.44V14.4201H0V1.22009H3.44V6.44009H8.48V1.22009H11.92Z" fill="white"/>
</svg>
